/* XPM */
static char *rick05[] = {
/* columns rows colors chars-per-pixel */
"128 64 2 1 ",
"  c black",
". c white",
/* pixels */
"                                            .........................................................                           ",
"                                          ..............................................................                        ",
"                                         .................................................................                      ",
"                                         ..................................................................                     ",
"                                        ....................................................................                    ",
"                                          ........................................................... ......                    ",
"                                          ........................................................... .......                   ",
"                                           ...................................................................                  ",
"                                           ...................................................................                  ",
"                                            ..................................................................                  ",
"                                            ...................................................................                 ",
"                                              .................................................................                 ",
"                                              .................................................................                 ",
"                                               .......................  ........................................                ",
"                                                ......................   .......................................                ",
"                                                .....................    .......................................                ",
"                                              .......................    .......................................                ",
"                                              ......................      ..................................... .               ",
"                                              ......................      .....................................                 ",
"                                              ......................       ...................................                  ",
"                                             .......................       ....................................                 ",
"                                             .......................        ..................................                  ",
"                                             .......................          .................................                 ",
"                                            ........................            .................................               ",
"                                           ...........................           ................................               ",
"                                           ............................          ................................               ",
"                                            ............................         ................................               ",
"                                            ............................          ...............................               ",
"                                             ............................          ...................   ........               ",
"                                                ........................           ...................   ........               ",
"                                               ........................              ....   ............ ........               ",
"                                              .........................                     ......... .. .......                ",
"                                              .........................                       ....... .. .......                ",
"                                             .  .......................                       ....... .. .......                ",
"                                            .   ........................                      ....... .........                 ",
"                                           .............................                      .......  ........                 ",
"                                            ............................                   ..... ...  ........                  ",
"                                            ............................                  .....    . ........                   ",
"                                             ...........................                 .......    ........                    ",
"                                               .........................                 .......    ........                    ",
"                                               .........................                 .......    .......                     ",
"                                               ..........................               ..          ......                      ",
"                                              .............................                         ......                      ",
"                                              ............................                          .....                       ",
"                                              ............................                          ....                        ",
"                                               ..............................                       ...                         ",
"                                                .............................                                                   ",
"                                                 .............................                                                  ",
"                                                 .............................                                                  ",
"                                                  .............................                                                 ",
"                                                   .............................                                                ",
"                                                   .............................        .                                       ",
"                                                   .............................        .                                       ",
"                                                    ............................                                                ",
"                                                    .............. .............       .                                        ",
"                                                    ............   ..........                                                   ",
"                                                    .........................         .                   ..                    ",
"                                                    ............. ..........         .               .    ...                   ",
"                                                    .........................       ..              ..    .....                 ",
"                                                    ............. ...........      ..              ...    .......               ",
"                                                  ................. ............................................................",
"                                              ..................... ..................... ... . .. ... .. ............... . ....",
"                                         .......................  . ...       . .. ..  .. ..  . ..  .. .. ...... ... ...    ....",
"                                     ...........................  . ............................................................"
};
